<?xml version="1.0" encoding="UTF-8" standalone="no"?>
<!-- Generator: Adobe Illustrator 18.0.0, SVG Export Plug-In . SVG Version: 6.00 Build 0)  -->

<svg
   version="1.1"
   id="Capa_1"
   x="0px"
   y="0px"
   viewBox="0 0 330 330"
   style="enable-background:new 0 0 330 330;"
   xml:space="preserve"
   sodipodi:docname="download-svgrepo-com.svg"
   inkscape:version="1.1.1 (3bf5ae0d25, 2021-09-20)"
   xmlns:inkscape="http://www.inkscape.org/namespaces/inkscape"
   xmlns:sodipodi="http://sodipodi.sourceforge.net/DTD/sodipodi-0.dtd"
   xmlns="http://www.w3.org/2000/svg"
   xmlns:svg="http://www.w3.org/2000/svg"><defs
   id="defs43" /><sodipodi:namedview
   id="namedview41"
   pagecolor="#ffffff"
   bordercolor="#666666"
   borderopacity="1.0"
   inkscape:pageshadow="2"
   inkscape:pageopacity="0.0"
   inkscape:pagecheckerboard="0"
   showgrid="false"
   inkscape:zoom="2.1787879"
   inkscape:cx="163.62309"
   inkscape:cy="204.01252"
   inkscape:window-width="1920"
   inkscape:window-height="1017"
   inkscape:window-x="1912"
   inkscape:window-y="-8"
   inkscape:window-maximized="1"
   inkscape:current-layer="g8" />
<g
   id="g8">
	<path
   d="M165,0C74.019,0,0,74.018,0,165c0,90.98,74.019,165,165,165s165-74.02,165-165C330,74.018,255.981,0,165,0z M165,300   c-74.439,0-135-60.561-135-135S90.561,30,165,30s135,60.561,135,135S239.439,300,165,300z"
   id="path2"
   style="fill:#5478ed;fill-opacity:1" />
	<path
   d="M211.667,127.121l-31.669,31.666V75c0-8.285-6.716-15-15-15c-8.284,0-15,6.715-15,15v83.787l-31.665-31.666   c-5.857-5.857-15.355-5.857-21.213,0c-5.858,5.859-5.858,15.355,0,21.213l57.271,57.271c2.929,2.93,6.768,4.395,10.606,4.395   c3.838,0,7.678-1.465,10.607-4.393l57.275-57.271c5.857-5.857,5.858-15.355,0.001-21.215   C227.021,121.264,217.524,121.264,211.667,127.121z"
   id="path4"
   style="fill:#1a1a1a;fill-opacity:1" />
	<path
   d="M195,240h-60c-8.284,0-15,6.715-15,15c0,8.283,6.716,15,15,15h60c8.284,0,15-6.717,15-15C210,246.715,203.284,240,195,240z   "
   id="path6"
   style="fill:#9c1198;fill-opacity:1" />
</g>
<g
   id="g10">
</g>
<g
   id="g12">
</g>
<g
   id="g14">
</g>
<g
   id="g16">
</g>
<g
   id="g18">
</g>
<g
   id="g20">
</g>
<g
   id="g22">
</g>
<g
   id="g24">
</g>
<g
   id="g26">
</g>
<g
   id="g28">
</g>
<g
   id="g30">
</g>
<g
   id="g32">
</g>
<g
   id="g34">
</g>
<g
   id="g36">
</g>
<g
   id="g38">
</g>
</svg>
