<?xml version="1.0" encoding="UTF-8" standalone="no"?>
<!-- Generator: Adobe Illustrator 19.0.0, SVG Export Plug-In . SVG Version: 6.00 Build 0)  -->

<svg
   version="1.1"
   id="Layer_1"
   x="0px"
   y="0px"
   viewBox="0 0 455.861 455.861"
   style="enable-background:new 0 0 455.861 455.861;"
   xml:space="preserve"
   sodipodi:docname="mail-svgrepo-com.svg"
   inkscape:version="1.1.1 (3bf5ae0d25, 2021-09-20)"
   xmlns:inkscape="http://www.inkscape.org/namespaces/inkscape"
   xmlns:sodipodi="http://sodipodi.sourceforge.net/DTD/sodipodi-0.dtd"
   xmlns="http://www.w3.org/2000/svg"
   xmlns:svg="http://www.w3.org/2000/svg"><defs
   id="defs45" /><sodipodi:namedview
   id="namedview43"
   pagecolor="#ffffff"
   bordercolor="#666666"
   borderopacity="1.0"
   inkscape:pageshadow="2"
   inkscape:pageopacity="0.0"
   inkscape:pagecheckerboard="0"
   showgrid="false"
   inkscape:zoom="1.5772352"
   inkscape:cx="227.9305"
   inkscape:cy="227.9305"
   inkscape:window-width="1920"
   inkscape:window-height="1017"
   inkscape:window-x="1912"
   inkscape:window-y="-8"
   inkscape:window-maximized="1"
   inkscape:current-layer="g6" />
<g
   id="g10">
	<g
   id="g8"
   style="fill:#5478ed;fill-opacity:1">
		<g
   id="g6"
   style="fill:#5478ed;fill-opacity:1">
			<path
   d="M52.616,139.032l102.427,88.898L52.616,316.828c-6.162,5.349-6.823,14.68-1.474,20.843     c5.349,6.162,14.68,6.821,20.842,1.474l105.6-91.651l40.663,35.292c2.778,2.411,6.231,3.616,9.684,3.616s6.906-1.205,9.684-3.616     l40.663-35.292l105.6,91.651c6.162,5.348,15.493,4.688,20.842-1.474c5.349-6.163,4.688-15.494-1.474-20.843L300.819,227.93     l102.427-88.898c6.163-5.349,6.823-14.68,1.474-20.843c-5.349-6.163-14.682-6.822-20.842-1.474     c-8.592,7.457-146.799,127.408-155.947,135.348c-9.151-7.942-147.358-127.893-155.947-135.348     c-6.162-5.348-15.494-4.687-20.842,1.474C45.793,124.352,46.454,133.683,52.616,139.032z"
   id="path2"
   style="fill:#9c1198;fill-opacity:1" />
			<path
   d="M441.088,63.154H14.774C6.615,63.154,0,69.77,0,77.929v300.003c0,8.16,6.615,14.774,14.774,14.774h426.313     c8.16,0,14.774-6.614,14.774-14.774V77.929C455.862,69.77,449.248,63.154,441.088,63.154z M426.314,363.157h-0.001H29.549V92.703     h396.765V363.157z"
   id="path4"
   style="fill:#5478ed;fill-opacity:1" />
		</g>
	</g>
</g>
<g
   id="g12">
</g>
<g
   id="g14">
</g>
<g
   id="g16">
</g>
<g
   id="g18">
</g>
<g
   id="g20">
</g>
<g
   id="g22">
</g>
<g
   id="g24">
</g>
<g
   id="g26">
</g>
<g
   id="g28">
</g>
<g
   id="g30">
</g>
<g
   id="g32">
</g>
<g
   id="g34">
</g>
<g
   id="g36">
</g>
<g
   id="g38">
</g>
<g
   id="g40">
</g>
</svg>
